<svg xmlns="http://www.w3.org/2000/svg" viewBox="0 0 1200 900" role="img" aria-labelledby="title">
  <title id="title">CorpTime abstract project cover</title>
  <defs>
    <linearGradient id="bg" x1="0" y1="1" x2="1" y2="0">
      <stop stop-color="#080812"/>
      <stop offset="1" stop-color="#14243a"/>
    </linearGradient>
    <filter id="blur"><feGaussianBlur stdDeviation="24"/></filter>
  </defs>
  <rect width="1200" height="900" fill="url(#bg)"/>
  <g fill="none" stroke="#b6e9ff" stroke-opacity=".2">
    <circle cx="600" cy="430" r="310"/><circle cx="600" cy="430" r="225"/><circle cx="600" cy="430" r="135"/>
  </g>
  <g stroke="#7be7ff" stroke-opacity=".65" stroke-width="2">
    <path d="M600 430 318 286M600 430l267-185M600 430l345 146M600 430 402 703"/>
  </g>
  <g fill="#eafaff">
    <circle cx="600" cy="430" r="18"/><circle cx="318" cy="286" r="12"/><circle cx="867" cy="245" r="12"/><circle cx="945" cy="576" r="12"/><circle cx="402" cy="703" r="12"/>
  </g>
  <g fill="#7be7ff" opacity=".35" filter="url(#blur)">
    <circle cx="600" cy="430" r="120"/><circle cx="867" cy="245" r="54"/>
  </g>
  <path d="M70 155h320M70 190h220" stroke="#f5f1ff" stroke-opacity=".4" stroke-width="3"/>
  <text x="70" y="85" fill="#f5f1ff" font-family="monospace" font-size="26" letter-spacing="7">CORPTIME / NETWORK 02</text>
  <text x="70" y="830" fill="#7be7ff" font-family="monospace" font-size="18" letter-spacing="5">REAL-TIME · MAPS · VIDEO</text>
</svg>
