<svg xmlns="http://www.w3.org/2000/svg" viewBox="0 0 1200 900" role="img" aria-labelledby="title">
  <title id="title">GoBot abstract project cover</title>
  <defs>
    <linearGradient id="bg" x1="0" y1="0" x2="1" y2="1">
      <stop stop-color="#17112f"/>
      <stop offset="1" stop-color="#080812"/>
    </linearGradient>
    <radialGradient id="glow">
      <stop stop-color="#a58cff" stop-opacity=".95"/>
      <stop offset="1" stop-color="#a58cff" stop-opacity="0"/>
    </radialGradient>
    <filter id="blur"><feGaussianBlur stdDeviation="28"/></filter>
  </defs>
  <rect width="1200" height="900" fill="url(#bg)"/>
  <g stroke="#d6ccff" stroke-opacity=".12">
    <path d="M0 150h1200M0 300h1200M0 450h1200M0 600h1200M0 750h1200"/>
    <path d="M150 0v900M300 0v900M450 0v900M600 0v900M750 0v900M900 0v900M1050 0v900"/>
  </g>
  <circle cx="770" cy="400" r="285" fill="none" stroke="#9b84ff" stroke-opacity=".34"/>
  <circle cx="770" cy="400" r="205" fill="none" stroke="#e678ff" stroke-opacity=".35"/>
  <circle cx="770" cy="400" r="96" fill="#9b84ff" fill-opacity=".12" stroke="#d8cdff" stroke-opacity=".55"/>
  <circle cx="770" cy="400" r="180" fill="url(#glow)" filter="url(#blur)" opacity=".55"/>
  <path d="M160 677 410 421l147 140 213-238" fill="none" stroke="#88f4ff" stroke-width="4" stroke-linecap="round"/>
  <g fill="#f5f1ff">
    <circle cx="160" cy="677" r="9"/><circle cx="410" cy="421" r="9"/><circle cx="557" cy="561" r="9"/>
  </g>
  <text x="70" y="85" fill="#f5f1ff" font-family="monospace" font-size="26" letter-spacing="7">GOBOT / SIGNAL 01</text>
  <text x="70" y="830" fill="#9b84ff" font-family="monospace" font-size="18" letter-spacing="5">EXPO · OTA · LOCAL SYSTEM</text>
</svg>
