<svg xmlns="http://www.w3.org/2000/svg" viewBox="0 0 1200 900" role="img" aria-labelledby="title">
  <title id="title">Place Time abstract project cover</title>
  <defs>
    <linearGradient id="bg" x1="1" y1="0" x2="0" y2="1">
      <stop stop-color="#1b193e"/>
      <stop offset="1" stop-color="#070711"/>
    </linearGradient>
    <radialGradient id="pin">
      <stop stop-color="#91ffbf"/>
      <stop offset="1" stop-color="#91ffbf" stop-opacity="0"/>
    </radialGradient>
  </defs>
  <rect width="1200" height="900" fill="url(#bg)"/>
  <g fill="none" stroke="#cfcbff" stroke-opacity=".16" stroke-width="2">
    <path d="M-80 230c250 70 379-75 590-8s353 226 745 55"/>
    <path d="M-40 410c252 92 398-84 622-7s346 232 692 99"/>
    <path d="M-20 615c238 63 392-111 610-28s342 213 676 123"/>
    <path d="M255-30c-90 232 73 350-6 568s-207 246-135 416"/>
    <path d="M550-40c-65 241 98 347 27 571s-184 244-98 411"/>
    <path d="M870-20c-77 220 84 341 5 558s-191 247-112 390"/>
  </g>
  <g fill="#9b84ff">
    <circle cx="250" cy="430" r="8"/><circle cx="455" cy="240" r="8"/><circle cx="930" cy="575" r="8"/><circle cx="790" cy="710" r="8"/>
  </g>
  <circle cx="685" cy="410" r="150" fill="url(#pin)" opacity=".36"/>
  <path d="M685 238c-86 0-156 69-156 155 0 115 156 276 156 276s156-161 156-276c0-86-70-155-156-155zm0 213a58 58 0 1 1 0-116 58 58 0 0 1 0 116z" fill="#91ffbf" fill-opacity=".83"/>
  <text x="70" y="85" fill="#f5f1ff" font-family="monospace" font-size="26" letter-spacing="7">PLACE TIME / GEO 04</text>
  <text x="70" y="830" fill="#91ffbf" font-family="monospace" font-size="18" letter-spacing="5">MAPBOX · ROUTES · SOCIAL</text>
</svg>
